<!-- Generator: Adobe Illustrator 22.0.0, SVG Export Plug-In  -->
<svg version="1.1"
	 xmlns="http://www.w3.org/2000/svg" xmlns:xlink="http://www.w3.org/1999/xlink" xmlns:a="http://ns.adobe.com/AdobeSVGViewerExtensions/3.0/"
	 x="0px" y="0px" width="153.5px" height="131.4px" viewBox="0 0 153.5 131.4" style="enable-background:new 0 0 153.5 131.4;"
	 xml:space="preserve">
<style type="text/css">
	.st0{fill:#1A171B;}
</style>
<defs>
</defs>
<g>
	<path class="st0" d="M145,58.3l-0.9-0.7v0.2l-9.3-5.3h-0.4l-20.4,0V11c0-6.1-4.9-11-11-11H45.2c-6.1,0-11,4.9-11,11v41.5l-28.1,0
		c0,0,0,0,0,0c-1.6,0-3.1,0.6-4.3,1.8C0.6,55.4,0,57,0,58.6v9.1c0,1.6,0.6,3.1,1.8,4.3c1.1,1.1,2.7,1.8,4.3,1.8c0,0,0,0,0,0l28.1,0
		v47.2c0,5.8,4.7,10.5,10.5,10.5h58.8c5.8,0,10.5-4.7,10.5-10.5V73.7l20.4,0h0.5l9.5-5.4l0,0.1l0.2-0.2l8.9-5.1L145,58.3z
		 M65.8,63.1c0,5.8,4.8,10.6,10.6,10.6l1.4,0l9.7,0c-2.9,3-6.9,4.8-11.2,4.8c-8.5,0-15.4-6.9-15.4-15.4s6.9-15.4,15.4-15.4
		c4.3,0,8.3,1.7,11.1,4.8l-11.1,0C70.5,52.5,65.8,57.3,65.8,63.1z M68.8,63.1c0-0.5,0.1-1,0.2-1.5l62.3,0c-0.1,0.5-0.2,0.9-0.2,1.4
		c0,0.6,0.1,1.1,0.2,1.6l-62.4,0C68.8,64.2,68.8,63.6,68.8,63.1z M131.4,58.6l-61.1,0c1.4-1.8,3.6-3.1,6-3.1l0.2,0l54.7,0
		c-0.1,0.4-0.1,0.8-0.1,1.2C131,57.4,131.2,58,131.4,58.6z M45.2,3h57.7c4.4,0,8,3.6,8,8v7.2H37.2V11C37.2,6.6,40.8,3,45.2,3z
		 M16.7,70.7l-4.1,0V55.5l4.1,0V70.7z M19.7,61.6l14.5,0v3.1l-14.5,0V61.6z M34.2,58.6l-14.5,0v-3.1l14.5,0V58.6z M6.1,70.7
		C6.1,70.7,6.1,70.7,6.1,70.7c-0.8,0-1.6-0.3-2.2-0.9C3.3,69.2,3,68.5,3,67.6v-9.1c0-0.8,0.3-1.6,0.9-2.2c0.6-0.6,1.3-0.9,2.2-0.9
		c0,0,0,0,0,0l3.5,0v15.2L6.1,70.7z M19.7,70.7v-3.1l14.5,0v3.1L19.7,70.7z M103.4,128.4H44.6c-4.1,0-7.5-3.3-7.5-7.5v-10.8h73.8
		v10.8C110.9,125.1,107.6,128.4,103.4,128.4z M110.9,107.1H37.2v-86h73.8v31.4l-19.6,0c-3.4-4.9-9-7.8-15-7.8
		C66.2,44.7,58,53,58,63.1s8.2,18.4,18.4,18.4c6,0,11.6-2.9,15-7.8l19.5,0V107.1z M75.7,70.7c-2.2-0.2-4.2-1.3-5.5-3l61,0
		c-0.1,0.5-0.2,1-0.2,1.6c0,0.5,0.1,1,0.2,1.5L75.7,70.7z M134.3,70.5c-0.2-0.4-0.3-0.8-0.3-1.3c0-0.6,0.2-1.2,0.6-1.7
		c0.7-0.8,0.7-1.9,0-2.7c-0.4-0.5-0.6-1.1-0.6-1.7c0-0.6,0.2-1.2,0.6-1.7c0.7-0.8,0.7-1.9,0-2.7c-0.4-0.5-0.6-1.1-0.6-1.7
		c0-0.4,0.1-0.7,0.2-1l9.8,5.5V65L134.3,70.5z"/>
	<rect x="59.5" y="9.9" class="st0" width="29.1" height="3"/>
	<path class="st0" d="M74,111.5c-4.3,0-7.9,3.5-7.9,7.9s3.5,7.9,7.9,7.9c4.3,0,7.9-3.5,7.9-7.9S78.4,111.5,74,111.5z M74,124.2
		c-2.7,0-4.9-2.2-4.9-4.9s2.2-4.9,4.9-4.9c2.7,0,4.9,2.2,4.9,4.9S76.7,124.2,74,124.2z"/>
	
		<rect x="128.2" y="77.9" transform="matrix(0.7071 -0.7071 0.7071 0.7071 -25.823 118.1671)" class="st0" width="3" height="24.7"/>
	
		<rect x="117.4" y="34.1" transform="matrix(0.7071 -0.7071 0.7071 0.7071 12.8131 102.1641)" class="st0" width="24.7" height="3"/>
	<rect x="5.1" y="88.8" transform="matrix(0.7071 -0.7071 0.7071 0.7071 -58.6992 38.7979)" class="st0" width="24.7" height="3"/>
	<rect x="16" y="23.3" transform="matrix(0.7071 -0.7071 0.7071 0.7071 -20.063 22.7941)" class="st0" width="3" height="24.7"/>
	<path class="st0" d="M54.2,56.3l-2.9-0.9c-0.7,2.4-1.1,4.9-1.1,7.5c0,2.8,0.4,5.6,1.3,8.2l2.8-0.9c-0.8-2.3-1.2-4.8-1.2-7.3
		C53.2,60.7,53.6,58.5,54.2,56.3z"/>
	<path class="st0" d="M76.7,93.2c-1.3,0-2.7-0.1-4-0.3l-0.4,3c1.5,0.2,2.9,0.3,4.4,0.3c4.5,0,8.8-0.9,12.9-2.6l-1.2-2.8
		C84.8,92.4,80.8,93.2,76.7,93.2z"/>
	<path class="st0" d="M105.4,39.2l2.3-1.9c-4.1-4.9-9.3-8.8-15.2-11.3l-1.2,2.8C96.7,31,101.6,34.7,105.4,39.2z"/>
	<path class="st0" d="M51.3,39c-2.5,2.6-4.5,5.6-6,8.9l2.7,1.3c1.4-3,3.3-5.7,5.5-8.1L51.3,39z"/>
</g>
</svg>
