<!-- Generator: Adobe Illustrator 22.0.0, SVG Export Plug-In  -->
<svg version="1.1"
	 xmlns="http://www.w3.org/2000/svg" xmlns:xlink="http://www.w3.org/1999/xlink" xmlns:a="http://ns.adobe.com/AdobeSVGViewerExtensions/3.0/"
	 x="0px" y="0px" width="112.4px" height="137.1px" viewBox="0 0 112.4 137.1" style="enable-background:new 0 0 112.4 137.1;"
	 xml:space="preserve">
<style type="text/css">
	.st0{fill:#1A171B;}
</style>
<defs>
</defs>
<g>
	<path class="st0" d="M17.7,29.9c-3.2,0-5.7,2.6-5.7,5.7c0,3.2,2.6,5.7,5.7,5.7c3.2,0,5.7-2.6,5.7-5.7
		C23.4,32.5,20.8,29.9,17.7,29.9z M17.7,38.4c-1.5,0-2.7-1.2-2.7-2.7c0-1.5,1.2-2.7,2.7-2.7c1.5,0,2.7,1.2,2.7,2.7
		C20.4,37.2,19.2,38.4,17.7,38.4z"/>
	<path class="st0" d="M32.3,29.9c-3.2,0-5.7,2.6-5.7,5.7c0,3.2,2.6,5.7,5.7,5.7c3.2,0,5.7-2.6,5.7-5.7C38,32.5,35.4,29.9,32.3,29.9z
		 M32.3,38.4c-1.5,0-2.7-1.2-2.7-2.7c0-1.5,1.2-2.7,2.7-2.7c1.5,0,2.7,1.2,2.7,2.7C35,37.2,33.8,38.4,32.3,38.4z"/>
	<path class="st0" d="M46.9,29.9c-3.2,0-5.7,2.6-5.7,5.7c0,3.2,2.6,5.7,5.7,5.7c3.2,0,5.7-2.6,5.7-5.7
		C52.6,32.5,50.1,29.9,46.9,29.9z M46.9,38.4c-1.5,0-2.7-1.2-2.7-2.7c0-1.5,1.2-2.7,2.7-2.7c1.5,0,2.7,1.2,2.7,2.7
		C49.6,37.2,48.4,38.4,46.9,38.4z"/>
	<path class="st0" d="M31.5,98.7C43.9,98.7,54,88.6,54,76.2c0-12.4-10.1-22.5-22.5-22.5C19.1,53.7,9,63.8,9,76.2
		C9,88.6,19.1,98.7,31.5,98.7z M19.4,91.5c0.2-2.6,1.9-4.8,4.5-5.4c0.5-0.1,0.9-0.3,1.3-0.5c0.3,0.9,0.8,1.9,1.5,2.7
		c1.2,1.3,2.8,1.9,4.8,1.9c2,0,3.6-0.6,4.8-1.9c0.8-0.8,1.2-1.7,1.5-2.7c0.4,0.2,0.8,0.4,1.3,0.5c2.5,0.6,4.3,2.8,4.5,5.4
		c-3.3,2.6-7.5,4.2-12.1,4.2C27,95.7,22.8,94.1,19.4,91.5z M25.5,80.1c0,0.2-0.1,0.4-0.2,0.7c-1,0-1.9-0.2-2.6-0.4
		c0.7-1.7,1.1-4,1.4-6.7v2.2C24.1,77.5,24.7,78.9,25.5,80.1z M28,82.3c1,0.6,2.2,0.9,3.5,0.9h0.1c1.2,0,2.4-0.3,3.5-0.9
		c0.1,0.2,0.2,0.5,0.3,0.7c-0.1,0.8-0.3,2.2-1.2,3.2c-0.6,0.7-1.5,1-2.6,1c-1.2,0-2-0.3-2.6-1c-0.9-0.9-1.1-2.4-1.2-3.2
		C27.8,82.8,27.9,82.6,28,82.3z M37.7,80.8c-0.1-0.3-0.1-0.5-0.2-0.7c0.9-1.2,1.4-2.7,1.4-4.3v-2.2c0.2,2.7,0.7,5,1.4,6.7
		C39.6,80.6,38.7,80.8,37.7,80.8z M37.9,68.9c-4-1.5-4.8-5.4-4.9-7.6c1.3,0.3,2.6,0.9,3.6,1.9c1.3,1.3,2.1,3.1,2.1,5
		c0,0.6,0,1.2,0,1.8L37.9,68.9z M35.9,71.3v4.6c0,2.4-1.9,4.3-4.3,4.3h-0.1c-2.4,0-4.3-1.9-4.3-4.3v-4.6c2.1-1,3.5-2.6,4.4-4.3
		C32.4,68.7,33.8,70.3,35.9,71.3z M25.1,68.9L24.3,70c0-0.6,0-1.2,0-1.8c0-1.9,0.7-3.7,2.1-5c1-1,2.2-1.7,3.6-1.9
		C29.9,63.5,29.1,67.4,25.1,68.9z M31.5,56.7c10.8,0,19.5,8.7,19.5,19.5c0,4.9-1.8,9.4-4.8,12.8c-0.9-2.6-2.9-4.7-5.5-5.6
		c1.3-0.3,2.2-0.7,2.3-0.7l0.7-2.1c-1.3-2.2-2-6.4-2-12.3c0-2.7-1-5.2-2.9-7.2c-1.9-1.9-4.4-2.9-7.1-2.9h-0.3c-2.7,0-5.2,1-7.1,2.9
		c-1.9,1.9-2.9,4.4-2.9,7.2c0,5.8-0.7,10.1-2,12.3l0.7,2.1c0.1,0,0.9,0.4,2.3,0.7c-2.6,0.9-4.6,3-5.5,5.6c-3-3.4-4.8-7.9-4.8-12.8
		C12,65.5,20.8,56.7,31.5,56.7z"/>
	<path class="st0" d="M50.8,104.7H12.3c-0.8,0-1.5,0.7-1.5,1.5c0,0.8,0.7,1.5,1.5,1.5h38.5c0.8,0,1.5-0.7,1.5-1.5
		C52.3,105.4,51.6,104.7,50.8,104.7z"/>
	<path class="st0" d="M50.8,112.3H12.3c-0.8,0-1.5,0.7-1.5,1.5c0,0.8,0.7,1.5,1.5,1.5h38.5c0.8,0,1.5-0.7,1.5-1.5
		C52.3,112.9,51.6,112.3,50.8,112.3z"/>
	<path class="st0" d="M1.5,137.1h109.4c0.8,0,1.5-0.7,1.5-1.5V125V47.9V23.3c0-0.8-0.7-1.5-1.5-1.5H98v-4c0-0.8-0.7-1.5-1.5-1.5l0,0
		l0.1-2c0-0.4-0.1-0.8-0.4-1.1c-0.3-0.3-0.7-0.5-1.1-0.5h-2.5V8.6C92.6,3.8,88.7,0,84,0c-4.7,0-8.6,3.8-8.6,8.6v4.2h-2.5
		c-0.4,0-0.8,0.2-1.1,0.5c-0.3,0.3-0.4,0.7-0.4,1.1l0.1,2l0,0c-0.8,0-1.5,0.7-1.5,1.5v0.5h-2.6c-0.4,0-0.8,0.2-1.1,0.5
		c-0.3,0.3-0.4,0.7-0.4,1.1l0.1,2H1.5c-0.8,0-1.5,0.7-1.5,1.5v24.5V125v10.6C0,136.4,0.7,137.1,1.5,137.1z M94.3,100.4l-8.8,13.7
		v-11c1.7-0.6,2.9-2.2,2.9-4.1c0-2.4-2-4.4-4.4-4.4c-2.4,0-4.4,2-4.4,4.4c0,1.9,1.2,3.5,2.9,4.1v11l-8.8-13.7
		c4.8-3.6,5.3-7.6,5.1-9.8h10.3C89,92.8,89.5,96.8,94.3,100.4z M84,100.4c-0.7,0-1.4-0.6-1.4-1.4s0.6-1.4,1.4-1.4
		c0.7,0,1.4,0.6,1.4,1.4S84.7,100.4,84,100.4z M74.2,87.6v-0.8h2.6h14.4h2.6v0.8H74.2z M73.1,53.3l-0.2-0.7l0.2-0.5L73.1,53.3z
		 M76.8,69.7L74.8,24h18.3l-1.9,45.7H76.8z M78.3,72.7h4.2v11.1h-4.2V72.7z M85.5,83.8V72.7h4.2v11.1H85.5z M93.3,21H74.7l-0.1-1.7
		h18.7L93.3,21z M71.9,24.8l0.9,21.5h-2.5l-1.1-21.5H71.9z M72.9,49.4l0,1.1c-0.2-0.3-0.5-0.5-0.8-0.6c-0.6-0.2-1.3,0.1-1.7,0.6
		l-0.1-1.1H72.9z M67.7,55.7c0,0.4,0.2,0.8,0.5,1c0.3,0.2,0.6,0.4,1,0.4c0,0,0.1,0,0.1,0l3-0.2c0.4,0,0.7-0.2,0.9-0.4l0.6,14.6
		c0,0.8,0.7,1.4,1.5,1.4v11.1h-2.6c-0.8,0-1.5,0.7-1.5,1.5v3.8c0,0.8,0.7,1.5,1.5,1.5h3.2c0.2,1.4,0,5-4.9,8.1
		c-0.3,0.2-0.6,0.6-0.7,0.9c-0.1,0.4,0,0.8,0.2,1.1l12.3,19.3c0,0,0,0,0,0c0.1,0.1,0.1,0.2,0.2,0.3c0,0,0,0,0.1,0.1
		c0.1,0.1,0.1,0.1,0.2,0.1c0,0,0.1,0,0.1,0.1c0.1,0,0.1,0.1,0.2,0.1c0,0,0.1,0,0.1,0c0.1,0,0.2,0,0.3,0c0.1,0,0.2,0,0.3,0
		c0,0,0.1,0,0.1,0c0.1,0,0.2-0.1,0.2-0.1c0,0,0.1,0,0.1-0.1c0.1,0,0.1-0.1,0.2-0.1c0,0,0,0,0.1-0.1c0.1-0.1,0.2-0.2,0.2-0.3
		c0,0,0,0,0,0l12.3-19.3c0.2-0.3,0.3-0.7,0.2-1.1c-0.1-0.4-0.3-0.7-0.7-0.9c-4.9-3.1-5.1-6.7-4.9-8.1h3.2c0.8,0,1.5-0.7,1.5-1.5
		v-3.8c0-0.8-0.7-1.5-1.5-1.5h-2.6V72.6c0.8,0,1.4-0.6,1.5-1.4l0.9-21.9h14.3v74.1H87.6V123c0-0.8-0.7-1.5-1.5-1.5h-3.9
		c-0.8,0-1.5,0.7-1.5,1.5v0.5H3V49.4h64.4L67.7,55.7z M109.4,134.1H3v-7.6h77.7v0.5c0,0.8,0.7,1.5,1.5,1.5h3.9
		c0.8,0,1.5-0.7,1.5-1.5v-0.5h21.8V134.1z M109.4,46.4H95.2l0.9-21.5h13.3V46.4z M78.4,8.6C78.4,5.5,80.9,3,84,3
		c3.1,0,5.6,2.5,5.6,5.6v4.2H78.4V8.6z M74.5,15.7h2.4h14.1h2.4l0,0.6h-19L74.5,15.7z M69,21.3h1v0.6h-1L69,21.3z M3,24.8h63.2
		l1.1,21.5H3V24.8z"/>
</g>
</svg>
