<!-- Generator: Adobe Illustrator 22.0.0, SVG Export Plug-In  -->
<svg version="1.1"
	 xmlns="http://www.w3.org/2000/svg" xmlns:xlink="http://www.w3.org/1999/xlink" xmlns:a="http://ns.adobe.com/AdobeSVGViewerExtensions/3.0/"
	 x="0px" y="0px" width="125.3px" height="141px" viewBox="0 0 125.3 141" style="enable-background:new 0 0 125.3 141;"
	 xml:space="preserve">
<style type="text/css">
	.st0{fill:#1A171B;}
</style>
<defs>
</defs>
<g>
	<path class="st0" d="M118.6,4.3c-3.2,0-5.8,2.2-6.5,5.2H73.7v-8C73.7,0.7,73,0,72.2,0H53.1c-0.8,0-1.5,0.7-1.5,1.5v8H13.2
		c-0.7-3-3.3-5.2-6.5-5.2C3,4.3,0,7.3,0,11s3,6.7,6.7,6.7c3.2,0,5.8-2.2,6.5-5.2h32.6c-16.8,6.2-29.1,21.2-31.6,39.3
		c-3.2,0.5-5.6,3.3-5.6,6.6c0,3.3,2.5,6.1,5.7,6.6c2,14.6,10.6,27.7,23.3,35.3v3.1h-3.2c-0.8,0-1.5,0.7-1.5,1.5v8.6
		c0,0.8,0.7,1.5,1.5,1.5h3.2v3.8h-3.2c-0.8,0-1.5,0.7-1.5,1.5v8.6c0,0.8,0.7,1.5,1.5,1.5h16.3c0.7,6,5.8,10.6,12,10.6
		c6.2,0,11.3-4.6,12-10.6H91c0.8,0,1.5-0.7,1.5-1.5v-8.6c0-0.8-0.7-1.5-1.5-1.5h-3.2V115H91c0.8,0,1.5-0.7,1.5-1.5v-8.6
		c0-0.8-0.7-1.5-1.5-1.5h-3.2v-3.1c12.7-7.6,21.4-20.7,23.3-35.3c3.2-0.5,5.7-3.3,5.7-6.6c0-3.3-2.4-6.1-5.6-6.6
		c-2.4-18.1-14.7-33.1-31.6-39.3h32.6c0.7,3,3.3,5.2,6.5,5.2c3.7,0,6.7-3,6.7-6.7S122.3,4.3,118.6,4.3z M54.6,3h16.1v16.1H54.6V3z
		 M6.7,14.7c-2,0-3.7-1.7-3.7-3.7s1.7-3.7,3.7-3.7c2,0,3.7,1.7,3.7,3.7S8.7,14.7,6.7,14.7z M11.6,58.4c0-2,1.7-3.7,3.7-3.7
		c2,0,3.7,1.7,3.7,3.7c0,2-1.7,3.7-3.7,3.7C13.2,62.1,11.6,60.5,11.6,58.4z M62.7,138c-4.5,0-8.3-3.3-9-7.6h17.9
		C70.9,134.7,67.2,138,62.7,138z M89.5,127.3H35.8v-5.6h53.6V127.3z M84.7,118.8H40.6V115h44.2V118.8z M89.5,112H35.8v-5.6h53.6V112
		z M62.7,56.8c1.8,0,3.2,1.5,3.2,3.2c0,1.8-1.5,3.2-3.2,3.2c-1.8,0-3.2-1.5-3.2-3.2C59.4,58.2,60.9,56.8,62.7,56.8z M61.2,54
		c-2.7,0.7-4.7,3.1-4.7,6.1c0,3.4,2.8,6.2,6.2,6.2c3.4,0,6.2-2.8,6.2-6.2c0-2.9-2-5.4-4.7-6.1V31.5L81,58c-9.3,6.5-9.2,14-8.7,17H53
		c0.5-3,0.6-10.5-8.7-17l16.9-26.5V54z M80,78v3.3h-5.4H50.7h-5.4V78H80z M73.1,103.4h-9V84.3h9V103.4z M61.2,84.3v19.1h-9V84.3
		H61.2z M113.7,58.4c0,2-1.7,3.7-3.7,3.7c-2,0-3.7-1.7-3.7-3.7c0-2,1.7-3.7,3.7-3.7C112.1,54.7,113.7,56.4,113.7,58.4z M108.1,52
		c-2.7,0.8-4.7,3.4-4.7,6.4c0,3,2,5.6,4.7,6.4c-2,13.9-10.3,26.3-22.6,33.4c-0.5,0.3-0.8,0.8-0.8,1.3v3.9h-8.6V84.3h5.4
		c0.8,0,1.5-0.7,1.5-1.5v-6.3c0-0.8-0.7-1.5-1.5-1.5h-6.1c-0.4-1.7-1.3-9.1,8.5-15.3c0.3-0.2,0.6-0.6,0.7-0.9c0.1-0.4,0-0.8-0.2-1.1
		l-20.4-32c0,0,0,0,0,0c-0.3-0.4-0.7-0.7-1.3-0.7c-0.5,0-1,0.3-1.3,0.7c0,0,0,0,0,0L41,57.6c-0.2,0.3-0.3,0.7-0.2,1.1
		c0.1,0.4,0.3,0.7,0.7,0.9c9.8,6.2,8.9,13.6,8.5,15.3h-6.1c-0.8,0-1.5,0.7-1.5,1.5v6.3c0,0.8,0.7,1.5,1.5,1.5h5.4v19.1h-8.6v-3.9
		c0-0.5-0.3-1-0.8-1.3c-12.3-7.1-20.6-19.5-22.6-33.4C20,64,22,61.4,22,58.4c0-3-2-5.6-4.7-6.4c2.6-18.6,16.2-33.7,34.4-38.2v6.7
		c0,0.8,0.7,1.5,1.5,1.5h19.1c0.8,0,1.5-0.7,1.5-1.5v-6.7C91.9,18.4,105.5,33.5,108.1,52z M118.6,14.7c-2,0-3.7-1.7-3.7-3.7
		s1.7-3.7,3.7-3.7c2,0,3.7,1.7,3.7,3.7S120.7,14.7,118.6,14.7z"/>
</g>
</svg>
