<!-- Generator: Adobe Illustrator 22.0.0, SVG Export Plug-In  -->
<svg version="1.1"
	 xmlns="http://www.w3.org/2000/svg" xmlns:xlink="http://www.w3.org/1999/xlink" xmlns:a="http://ns.adobe.com/AdobeSVGViewerExtensions/3.0/"
	 x="0px" y="0px" width="115.1px" height="133.2px" viewBox="0 0 115.1 133.2" style="enable-background:new 0 0 115.1 133.2;"
	 xml:space="preserve">
<style type="text/css">
	.st0{fill:#1A171B;}
</style>
<defs>
</defs>
<g>
	<path class="st0" d="M113.6,133.2l1.5-1.5V42.9l-1.5-1.5H97.3l0-33.7c0-2.1-0.8-4-2.3-5.5C93.6,0.8,91.6,0,89.6,0H77.2
		c-2.1,0-4,0.8-5.5,2.3c-1.5,1.5-2.3,3.4-2.3,5.5l0,33.7h-68L0,42.9v88.8l1.5,1.5H113.6z M80.5,97.7l-8-14.1
		c0.7-0.4,1.6-0.7,2.5-0.7c1,0,2,0.4,2.7,1c0.8,0.7,2.2,0.7,3,0c1.6-1.3,3.9-1.3,5.5,0c0.4,0.3,1,0.5,1.5,0.5c0.6,0,1.1-0.2,1.5-0.5
		c1.4-1.2,3.4-1.3,4.9-0.3l-8,14.2H80.5z M86,25.8l0,54.5c-0.8-0.3-1.6-0.5-2.5-0.5c-1,0-1.9,0.2-2.8,0.6l0-54.6H86z M89,80.5
		l0-54.7h5.3l0,54.4C92.6,79.6,90.7,79.8,89,80.5z M94.3,18H72.4l0-1.9h21.9L94.3,18z M94.3,21l0,1.9H72.4l0-1.9H94.3z M77.7,25.8
		l0,54.6c-1.7-0.7-3.6-0.7-5.3-0.1l0-54.5H77.7z M69.5,83.8v0.5l12.6,22.2H55.9c-0.8,0-1.5,0.7-1.5,1.5c0,0.8,0.7,1.5,1.5,1.5h35.6
		c0.8,0,1.5-0.7,1.5-1.5c0-0.8-0.7-1.5-1.5-1.5h-6.8l4.8-8.5l0.3-0.4h-0.1l7.6-13.5v-0.4l0-32h7.5V118H10.4V51.8h59.1L69.5,83.8z
		 M73.8,4.4C74.7,3.5,75.9,3,77.2,3h12.4c1.3,0,2.5,0.5,3.3,1.4c0.9,0.9,1.4,2.1,1.4,3.3l0,5.3H72.4l0-5.3
		C72.4,6.5,72.9,5.3,73.8,4.4z M3,44.4h66.5l0,4.4H8.9l-1.5,1.5v69.2l1.5,1.5h97.4l1.5-1.5V50.3l-1.5-1.5h-9l0-4.4h14.8v85.8H3V44.4
		z"/>
	<path class="st0" d="M50.6,103.4h15.8l1.2-2.3L52.1,77.7l-2.4-0.1l-6.9,8.7l-8.6-13.9l-2.6,0.1l-15.6,28.6l1.3,2.2H50.6z
		 M50.7,81.1l12.9,19.3H51.4L44.4,89L50.7,81.1z M32.9,76.2l15,24.2H19.8L32.9,76.2z"/>
</g>
</svg>
