<!-- Generator: Adobe Illustrator 22.0.0, SVG Export Plug-In  -->
<svg version="1.1"
	 xmlns="http://www.w3.org/2000/svg" xmlns:xlink="http://www.w3.org/1999/xlink" xmlns:a="http://ns.adobe.com/AdobeSVGViewerExtensions/3.0/"
	 x="0px" y="0px" width="125.8px" height="123.4px" viewBox="0 0 125.8 123.4" style="enable-background:new 0 0 125.8 123.4;"
	 xml:space="preserve">
<style type="text/css">
	.st0{fill:#1A171B;}
</style>
<defs>
</defs>
<g>
	<path class="st0" d="M32.7,68.4v53.5c0,0,0,0,0,0c0,0,0,0,0,0.1c0,0.1,0,0.2,0.1,0.4c0,0,0,0,0,0c0,0,0,0,0,0
		c0,0.1,0.1,0.2,0.2,0.4c0,0,0,0,0.1,0.1c0.1,0.1,0.2,0.2,0.3,0.3c0,0,0,0,0,0c0.1,0.1,0.2,0.1,0.4,0.2c0,0,0.1,0,0.1,0
		c0.1,0,0.3,0.1,0.4,0.1h88.4c0,0,0,0,0,0c0.8,0,1.5-0.7,1.5-1.5c0-0.1,0-0.1,0-0.2V68.4c0,0,0,0,0,0c0,0,0,0,0,0
		c0-0.1,0-0.3-0.1-0.4c0,0,0,0,0,0c0,0,0,0,0,0c0-0.1-0.1-0.3-0.2-0.4c0,0,0,0,0-0.1c-0.1-0.1-0.2-0.2-0.3-0.3c0,0,0,0,0,0
		c-0.1-0.1-0.2-0.1-0.4-0.2c0,0-0.1,0-0.1,0c-0.1,0-0.3-0.1-0.4-0.1H34.2c-0.1,0-0.3,0-0.4,0.1c0,0-0.1,0-0.1,0
		c-0.1,0-0.3,0.1-0.4,0.2c0,0,0,0,0,0c-0.1,0.1-0.2,0.2-0.3,0.3c0,0,0,0,0,0.1c-0.1,0.1-0.1,0.2-0.2,0.4c0,0,0,0,0,0c0,0,0,0,0,0
		C32.7,68.1,32.7,68.2,32.7,68.4C32.7,68.3,32.7,68.3,32.7,68.4C32.7,68.4,32.7,68.4,32.7,68.4z M35.7,71.3l30.7,22.8l-30.7,24.6
		V71.3z M38.5,120.3L68.9,96l8.6,6.4c0.3,0.2,0.6,0.3,0.9,0.3c0.3,0,0.6-0.1,0.9-0.3l8.6-6.4l30.5,24.4H38.5z M121.1,118.7
		L90.4,94.1l30.7-22.8V118.7z M118.1,69.9L87,92.9c0,0,0,0,0,0l-8.6,6.4l-8.6-6.4c0,0,0,0,0,0l-31.1-23H118.1z"/>
	<path class="st0" d="M99.9,36.9c5,0,9.1-4.1,9.1-9.1c0-5-4.1-9.1-9.1-9.1c-5,0-9.1,4.1-9.1,9.1C90.7,32.8,94.8,36.9,99.9,36.9z
		 M99.9,21.6c3.4,0,6.1,2.8,6.1,6.1c0,3.4-2.8,6.1-6.1,6.1c-3.4,0-6.1-2.8-6.1-6.1C93.7,24.3,96.5,21.6,99.9,21.6z"/>
	<path class="st0" d="M99.9,31.1c1.9,0,3.4-1.5,3.4-3.4c0-1.9-1.5-3.4-3.4-3.4c-1.9,0-3.4,1.5-3.4,3.4C96.5,29.6,98,31.1,99.9,31.1z
		 M99.9,27.3c0.2,0,0.4,0.2,0.4,0.4c0,0.2-0.2,0.4-0.4,0.4c-0.2,0-0.4-0.2-0.4-0.4C99.5,27.5,99.7,27.3,99.9,27.3z"/>
	<path class="st0" d="M34.2,54.5h6.6h46.9c0.8,0,1.5-0.7,1.5-1.5v-1.8c3.3,1.5,7,2.3,10.7,2.3c14.3,0,25.9-11.6,25.9-25.9
		S114.1,1.8,99.9,1.8c-3.7,0-7.3,0.8-10.7,2.3V2.4c0-0.8-0.7-1.5-1.5-1.5H40.8h-6.6c-0.8,0-1.5,0.7-1.5,1.5V53
		C32.7,53.9,33.4,54.5,34.2,54.5z M99.9,4.8c12.6,0,22.9,10.3,22.9,22.9s-10.3,22.9-22.9,22.9c-3.7,0-7.4-0.9-10.7-2.7V7.5
		C92.5,5.8,96.2,4.8,99.9,4.8z M86.2,51.5H42.3V3.9h43.9V51.5z M35.7,3.9h3.6v47.6h-3.6V3.9z"/>
	<path class="st0" d="M57.1,30.7l-2.2,6.8c-0.2,0.6,0,1.3,0.5,1.7c0.5,0.4,1.2,0.4,1.8,0L63,35l5.8,4.2c0.3,0.2,0.6,0.3,0.9,0.3
		c0.3,0,0.6-0.1,0.9-0.3c0.5-0.4,0.7-1.1,0.5-1.7l-2.2-6.8l5.8-4.2c0.5-0.4,0.7-1.1,0.5-1.7c-0.2-0.6-0.8-1-1.4-1h-7.2l-2.2-6.8
		c-0.2-0.6-0.8-1-1.4-1c-0.6,0-1.2,0.4-1.4,1l-2.2,6.8h-7.2c-0.6,0-1.2,0.4-1.4,1c-0.2,0.6,0,1.3,0.5,1.7L57.1,30.7z M60.4,26.8
		c0.6,0,1.2-0.4,1.4-1l1.1-3.5l1.1,3.5c0.2,0.6,0.8,1,1.4,1h3.7l-3,2.2c-0.5,0.4-0.7,1.1-0.5,1.7l1.1,3.5l-3-2.2
		c-0.5-0.4-1.2-0.4-1.8,0l-3,2.2l1.1-3.5c0.2-0.6,0-1.3-0.5-1.7l-3-2.2H60.4z"/>
	<path class="st0" d="M0.1,100.4c0,0.1,0,0.1,0.1,0.2c0,0,0,0,0,0l10.7,21.9c0.3,0.5,0.8,0.8,1.3,0.8c0.6,0,1.1-0.3,1.3-0.8
		l10.7-21.9c0,0,0,0,0,0c0-0.1,0.1-0.1,0.1-0.2c0,0,0-0.1,0-0.1c0-0.1,0-0.2,0-0.3V8.8c0-4.8-3.9-8.8-8.8-8.8H8.8C3.9,0,0,3.9,0,8.8
		V100C0,100.1,0,100.3,0.1,100.4C0,100.4,0.1,100.4,0.1,100.4z M3.9,101.5h16.7l-6.8,13.8h-3.1L3.9,101.5z M10.2,98.5V25.7h4.1v72.8
		H10.2z M7.2,98.5H3V25.7h4.2V98.5z M17.3,98.5V25.7h4.2v72.8H17.3z M21.5,22.7H3v-5.6h18.5V22.7z M12.1,118.3h0.2l-0.1,0.2
		L12.1,118.3z M8.8,3h6.9c3.2,0,5.8,2.6,5.8,5.8v5.4H3V8.8C3,5.6,5.6,3,8.8,3z"/>
</g>
</svg>
