<?xml version="1.0" encoding="UTF-8"?><!DOCTYPE svg PUBLIC "-//W3C//DTD SVG 1.1//EN" "http://www.w3.org/Graphics/SVG/1.1/DTD/svg11.dtd"><svg xmlns="http://www.w3.org/2000/svg"><symbol id="icon-facebook" viewBox="0 0 10 19">
    <title>
        facebook
    </title>
    <path d="M9.766.157v2.946H8.014c-.64 0-1.071.134-1.295.402-.223.268-.335.67-.335 1.205v2.11h3.27l-.435 3.303H6.384v8.471H2.97v-8.47H.123V6.82H2.97V4.387c0-1.384.387-2.457 1.161-3.22C4.904.404 5.934.023 7.222.023c1.093 0 1.941.045 2.544.134z" fill-rule="evenodd"/>
</symbol><symbol id="icon-screen-icon-1" viewBox="0 0 115.1 133.2">
    <style>
        .st0{fill:#1a171b}
    </style>
    <path class="st0" d="M113.6 133.2l1.5-1.5V42.9l-1.5-1.5H97.3V7.7c0-2.1-.8-4-2.3-5.5C93.6.8 91.6 0 89.6 0H77.2c-2.1 0-4 .8-5.5 2.3-1.5 1.5-2.3 3.4-2.3 5.5v33.7h-68L0 42.9v88.8l1.5 1.5h112.1zM80.5 97.7l-8-14.1c.7-.4 1.6-.7 2.5-.7 1 0 2 .4 2.7 1 .8.7 2.2.7 3 0 1.6-1.3 3.9-1.3 5.5 0 .4.3 1 .5 1.5.5.6 0 1.1-.2 1.5-.5 1.4-1.2 3.4-1.3 4.9-.3l-8 14.2h-5.6zM86 25.8v54.5c-.8-.3-1.6-.5-2.5-.5-1 0-1.9.2-2.8.6V25.8H86zm3 54.7V25.8h5.3v54.4c-1.7-.6-3.6-.4-5.3.3zM94.3 18H72.4v-1.9h21.9V18zm0 3v1.9H72.4V21h21.9zm-16.6 4.8v54.6c-1.7-.7-3.6-.7-5.3-.1V25.8h5.3zm-8.2 58v.5l12.6 22.2H55.9c-.8 0-1.5.7-1.5 1.5s.7 1.5 1.5 1.5h35.6c.8 0 1.5-.7 1.5-1.5s-.7-1.5-1.5-1.5h-6.8l4.8-8.5.3-.4h-.1l7.6-13.5V51.7h7.5V118H10.4V51.8h59.1v32zm4.3-79.4c.9-.9 2.1-1.4 3.4-1.4h12.4c1.3 0 2.5.5 3.3 1.4.9.9 1.4 2.1 1.4 3.3V13H72.4V7.7c0-1.2.5-2.4 1.4-3.3zM3 44.4h66.5v4.4H8.9l-1.5 1.5v69.2l1.5 1.5h97.4l1.5-1.5V50.3l-1.5-1.5h-9v-4.4h14.8v85.8H3V44.4z"/>
    <path class="st0" d="M50.6 103.4h15.8l1.2-2.3-15.5-23.4-2.4-.1-6.9 8.7-8.6-13.9-2.6.1L16 101.1l1.3 2.2h33.3zm.1-22.3l12.9 19.3H51.4l-7-11.4 6.3-7.9zm-17.8-4.9l15 24.2H19.8l13.1-24.2z"/>
</symbol><symbol id="icon-screen-icon-2" viewBox="0 0 153.5 131.4">
    <style>
        .st0{fill:#1a171b}
    </style>
    <path class="st0" d="M145 58.3l-.9-.7v.2l-9.3-5.3H114V11c0-6.1-4.9-11-11-11H45.2c-6.1 0-11 4.9-11 11v41.5H6.1c-1.6 0-3.1.6-4.3 1.8C.6 55.4 0 57 0 58.6v9.1c0 1.6.6 3.1 1.8 4.3 1.1 1.1 2.7 1.8 4.3 1.8h28.1V121c0 5.8 4.7 10.5 10.5 10.5h58.8c5.8 0 10.5-4.7 10.5-10.5V73.7h20.9l9.5-5.4v.1l.2-.2 8.9-5.1-8.5-4.8zm-79.2 4.8c0 5.8 4.8 10.6 10.6 10.6h11.1c-2.9 3-6.9 4.8-11.2 4.8-8.5 0-15.4-6.9-15.4-15.4s6.9-15.4 15.4-15.4c4.3 0 8.3 1.7 11.1 4.8H76.3c-5.8 0-10.5 4.8-10.5 10.6zm3 0c0-.5.1-1 .2-1.5h62.3c-.1.5-.2.9-.2 1.4 0 .6.1 1.1.2 1.6H68.9c-.1-.4-.1-1-.1-1.5zm62.6-4.5H70.3c1.4-1.8 3.6-3.1 6-3.1H131.2c-.1.4-.1.8-.1 1.2-.1.7.1 1.3.3 1.9zM45.2 3h57.7c4.4 0 8 3.6 8 8v7.2H37.2V11c0-4.4 3.6-8 8-8zM16.7 70.7h-4.1V55.5h4.1v15.2zm3-9.1h14.5v3.1H19.7v-3.1zm14.5-3H19.7v-3.1h14.5v3.1zM6.1 70.7c-.8 0-1.6-.3-2.2-.9-.6-.6-.9-1.3-.9-2.2v-9.1c0-.8.3-1.6.9-2.2.6-.6 1.3-.9 2.2-.9h3.5v15.2l-3.5.1zm13.6 0v-3.1h14.5v3.1H19.7zm83.7 57.7H44.6c-4.1 0-7.5-3.3-7.5-7.5v-10.8h73.8v10.8c0 4.2-3.3 7.5-7.5 7.5zm7.5-21.3H37.2v-86H111v31.4H91.4c-3.4-4.9-9-7.8-15-7.8C66.2 44.7 58 53 58 63.1s8.2 18.4 18.4 18.4c6 0 11.6-2.9 15-7.8h19.5v33.4zM75.7 70.7c-2.2-.2-4.2-1.3-5.5-3h61c-.1.5-.2 1-.2 1.6 0 .5.1 1 .2 1.5l-55.5-.1zm58.6-.2c-.2-.4-.3-.8-.3-1.3 0-.6.2-1.2.6-1.7.7-.8.7-1.9 0-2.7-.4-.5-.6-1.1-.6-1.7 0-.6.2-1.2.6-1.7.7-.8.7-1.9 0-2.7-.4-.5-.6-1.1-.6-1.7 0-.4.1-.7.2-1l9.8 5.5V65l-9.7 5.5z"/>
    <path class="st0" d="M59.5 9.9h29.1v3H59.5z"/>
    <path class="st0" d="M74 111.5c-4.3 0-7.9 3.5-7.9 7.9s3.5 7.9 7.9 7.9c4.3 0 7.9-3.5 7.9-7.9s-3.5-7.9-7.9-7.9zm0 12.7c-2.7 0-4.9-2.2-4.9-4.9s2.2-4.9 4.9-4.9 4.9 2.2 4.9 4.9-2.2 4.9-4.9 4.9z"/>
    <path class="st0" d="M119.91 82.6l2.122-2.121 17.465 17.465-2.121 2.121z"/>
    <path class="st0" d="M119.939 43.263l17.465-17.466 2.121 2.122-17.465 17.465z"/>
    <path class="st0" d="M7.697 97.982l17.466-17.465 2.121 2.121L9.82 100.103z"/>
    <path class="st0" d="M7.726 27.956l2.121-2.121L27.313 43.3l-2.122 2.121z"/>
    <path class="st0" d="M54.2 56.3l-2.9-.9c-.7 2.4-1.1 4.9-1.1 7.5 0 2.8.4 5.6 1.3 8.2l2.8-.9c-.8-2.3-1.2-4.8-1.2-7.3.1-2.2.5-4.4 1.1-6.6z"/>
    <path class="st0" d="M76.7 93.2c-1.3 0-2.7-.1-4-.3l-.4 3c1.5.2 2.9.3 4.4.3 4.5 0 8.8-.9 12.9-2.6l-1.2-2.8c-3.6 1.6-7.6 2.4-11.7 2.4z"/>
    <path class="st0" d="M105.4 39.2l2.3-1.9c-4.1-4.9-9.3-8.8-15.2-11.3l-1.2 2.8c5.4 2.2 10.3 5.9 14.1 10.4z"/>
    <path class="st0" d="M51.3 39c-2.5 2.6-4.5 5.6-6 8.9l2.7 1.3c1.4-3 3.3-5.7 5.5-8.1L51.3 39z"/>
</symbol><symbol id="icon-screen-icon-3" viewBox="0 0 125.8 123.4">
    <style>
        .st0{fill:#1a171b}
    </style>
    <path class="st0" d="M32.7 68.4V122c0 .1 0 .2.1.4 0 .1.1.2.2.4l.1.1.3.3c.1.1.2.1.4.2h.1c.1 0 .3.1.4.1h88.4c.8 0 1.5-.7 1.5-1.5V68.4c0-.1 0-.3-.1-.4 0-.1-.1-.3-.2-.4v-.1l-.3-.3c-.1-.1-.2-.1-.4-.2h-.1c-.1 0-.3-.1-.4-.1H34.2c-.1 0-.3 0-.4.1h-.1c-.1 0-.3.1-.4.2l-.3.3v.1c-.1.1-.1.2-.2.4-.1.1-.1.2-.1.4 0-.1 0-.1 0 0zm3 2.9l30.7 22.8-30.7 24.6V71.3zm2.8 49L68.9 96l8.6 6.4c.3.2.6.3.9.3.3 0 .6-.1.9-.3l8.6-6.4 30.5 24.4H38.5zm82.6-1.6L90.4 94.1l30.7-22.8v47.4zm-3-48.8L87 92.9l-8.6 6.4-8.6-6.4-31.1-23h79.4z"/>
    <path class="st0" d="M99.9 36.9c5 0 9.1-4.1 9.1-9.1s-4.1-9.1-9.1-9.1-9.1 4.1-9.1 9.1c-.1 5 4 9.1 9.1 9.1zm0-15.3c3.4 0 6.1 2.8 6.1 6.1 0 3.4-2.8 6.1-6.1 6.1-3.4 0-6.1-2.8-6.1-6.1-.1-3.4 2.7-6.1 6.1-6.1z"/>
    <path class="st0" d="M99.9 31.1c1.9 0 3.4-1.5 3.4-3.4s-1.5-3.4-3.4-3.4-3.4 1.5-3.4 3.4 1.5 3.4 3.4 3.4zm0-3.8c.2 0 .4.2.4.4s-.2.4-.4.4-.4-.2-.4-.4.2-.4.4-.4z"/>
    <path class="st0" d="M34.2 54.5h53.5c.8 0 1.5-.7 1.5-1.5v-1.8c3.3 1.5 7 2.3 10.7 2.3 14.3 0 25.9-11.6 25.9-25.9S114.1 1.8 99.9 1.8c-3.7 0-7.3.8-10.7 2.3V2.4c0-.8-.7-1.5-1.5-1.5H34.2c-.8 0-1.5.7-1.5 1.5V53c0 .9.7 1.5 1.5 1.5zM99.9 4.8c12.6 0 22.9 10.3 22.9 22.9s-10.3 22.9-22.9 22.9c-3.7 0-7.4-.9-10.7-2.7V7.5c3.3-1.7 7-2.7 10.7-2.7zM86.2 51.5H42.3V3.9h43.9v47.6zM35.7 3.9h3.6v47.6h-3.6V3.9z"/>
    <path class="st0" d="M57.1 30.7l-2.2 6.8c-.2.6 0 1.3.5 1.7.5.4 1.2.4 1.8 0L63 35l5.8 4.2c.3.2.6.3.9.3.3 0 .6-.1.9-.3.5-.4.7-1.1.5-1.7l-2.2-6.8 5.8-4.2c.5-.4.7-1.1.5-1.7-.2-.6-.8-1-1.4-1h-7.2L64.4 17c-.2-.6-.8-1-1.4-1-.6 0-1.2.4-1.4 1l-2.2 6.8h-7.2c-.6 0-1.2.4-1.4 1-.2.6 0 1.3.5 1.7l5.8 4.2zm3.3-3.9c.6 0 1.2-.4 1.4-1l1.1-3.5 1.1 3.5c.2.6.8 1 1.4 1h3.7l-3 2.2c-.5.4-.7 1.1-.5 1.7l1.1 3.5-3-2.2c-.5-.4-1.2-.4-1.8 0l-3 2.2 1.1-3.5c.2-.6 0-1.3-.5-1.7l-3-2.2h3.9z"/>
    <path class="st0" d="M.1 100.4c0 .1 0 .1.1.2l10.7 21.9c.3.5.8.8 1.3.8.6 0 1.1-.3 1.3-.8l10.7-21.9c0-.1.1-.1.1-.2v-.1V8.8C24.3 4 20.4 0 15.5 0H8.8C3.9 0 0 3.9 0 8.8V100c0 .1 0 .3.1.4-.1 0 0 0 0 0zm3.8 1.1h16.7l-6.8 13.8h-3.1l-6.8-13.8zm6.3-3V25.7h4.1v72.8h-4.1zm-3 0H3V25.7h4.2v72.8zm10.1 0V25.7h4.2v72.8h-4.2zm4.2-75.8H3v-5.6h18.5v5.6zm-9.4 95.6h.2l-.1.2-.1-.2zM8.8 3h6.9c3.2 0 5.8 2.6 5.8 5.8v5.4H3V8.8C3 5.6 5.6 3 8.8 3z"/>
</symbol><symbol id="icon-screen-icon-4" viewBox="0 0 112.4 137.1">
    <style>
        .st0{fill:#1a171b}
    </style>
    <path class="st0" d="M17.7 29.9c-3.2 0-5.7 2.6-5.7 5.7 0 3.2 2.6 5.7 5.7 5.7 3.2 0 5.7-2.6 5.7-5.7s-2.6-5.7-5.7-5.7zm0 8.5c-1.5 0-2.7-1.2-2.7-2.7 0-1.5 1.2-2.7 2.7-2.7 1.5 0 2.7 1.2 2.7 2.7 0 1.5-1.2 2.7-2.7 2.7z"/>
    <path class="st0" d="M32.3 29.9c-3.2 0-5.7 2.6-5.7 5.7 0 3.2 2.6 5.7 5.7 5.7 3.2 0 5.7-2.6 5.7-5.7s-2.6-5.7-5.7-5.7zm0 8.5c-1.5 0-2.7-1.2-2.7-2.7 0-1.5 1.2-2.7 2.7-2.7 1.5 0 2.7 1.2 2.7 2.7 0 1.5-1.2 2.7-2.7 2.7z"/>
    <path class="st0" d="M46.9 29.9c-3.2 0-5.7 2.6-5.7 5.7 0 3.2 2.6 5.7 5.7 5.7 3.2 0 5.7-2.6 5.7-5.7s-2.5-5.7-5.7-5.7zm0 8.5c-1.5 0-2.7-1.2-2.7-2.7 0-1.5 1.2-2.7 2.7-2.7 1.5 0 2.7 1.2 2.7 2.7 0 1.5-1.2 2.7-2.7 2.7z"/>
    <path class="st0" d="M31.5 98.7C43.9 98.7 54 88.6 54 76.2S43.9 53.7 31.5 53.7 9 63.8 9 76.2s10.1 22.5 22.5 22.5zm-12.1-7.2c.2-2.6 1.9-4.8 4.5-5.4.5-.1.9-.3 1.3-.5.3.9.8 1.9 1.5 2.7 1.2 1.3 2.8 1.9 4.8 1.9s3.6-.6 4.8-1.9c.8-.8 1.2-1.7 1.5-2.7.4.2.8.4 1.3.5 2.5.6 4.3 2.8 4.5 5.4-3.3 2.6-7.5 4.2-12.1 4.2-4.5 0-8.7-1.6-12.1-4.2zm6.1-11.4c0 .2-.1.4-.2.7-1 0-1.9-.2-2.6-.4.7-1.7 1.1-4 1.4-6.7v2.2c0 1.6.6 3 1.4 4.2zm2.5 2.2c1 .6 2.2.9 3.5.9h.1c1.2 0 2.4-.3 3.5-.9.1.2.2.5.3.7-.1.8-.3 2.2-1.2 3.2-.6.7-1.5 1-2.6 1-1.2 0-2-.3-2.6-1-.9-.9-1.1-2.4-1.2-3.2 0-.2.1-.4.2-.7zm9.7-1.5c-.1-.3-.1-.5-.2-.7.9-1.2 1.4-2.7 1.4-4.3v-2.2c.2 2.7.7 5 1.4 6.7-.7.3-1.6.5-2.6.5zm.2-11.9c-4-1.5-4.8-5.4-4.9-7.6 1.3.3 2.6.9 3.6 1.9 1.3 1.3 2.1 3.1 2.1 5V70l-.8-1.1zm-2 2.4v4.6c0 2.4-1.9 4.3-4.3 4.3h-.1c-2.4 0-4.3-1.9-4.3-4.3v-4.6c2.1-1 3.5-2.6 4.4-4.3.8 1.7 2.2 3.3 4.3 4.3zm-10.8-2.4l-.8 1.1v-1.8c0-1.9.7-3.7 2.1-5 1-1 2.2-1.7 3.6-1.9-.1 2.2-.9 6.1-4.9 7.6zm6.4-12.2c10.8 0 19.5 8.7 19.5 19.5 0 4.9-1.8 9.4-4.8 12.8-.9-2.6-2.9-4.7-5.5-5.6 1.3-.3 2.2-.7 2.3-.7l.7-2.1c-1.3-2.2-2-6.4-2-12.3 0-2.7-1-5.2-2.9-7.2-1.9-1.9-4.4-2.9-7.1-2.9h-.3c-2.7 0-5.2 1-7.1 2.9-1.9 1.9-2.9 4.4-2.9 7.2 0 5.8-.7 10.1-2 12.3l.7 2.1c.1 0 .9.4 2.3.7-2.6.9-4.6 3-5.5 5.6-3-3.4-4.8-7.9-4.8-12.8-.1-10.7 8.7-19.5 19.4-19.5z"/>
    <path class="st0" d="M50.8 104.7H12.3c-.8 0-1.5.7-1.5 1.5s.7 1.5 1.5 1.5h38.5c.8 0 1.5-.7 1.5-1.5s-.7-1.5-1.5-1.5z"/>
    <path class="st0" d="M50.8 112.3H12.3c-.8 0-1.5.7-1.5 1.5s.7 1.5 1.5 1.5h38.5c.8 0 1.5-.7 1.5-1.5 0-.9-.7-1.5-1.5-1.5z"/>
    <path class="st0" d="M1.5 137.1h109.4c.8 0 1.5-.7 1.5-1.5V23.3c0-.8-.7-1.5-1.5-1.5H98v-4c0-.8-.7-1.5-1.5-1.5l.1-2c0-.4-.1-.8-.4-1.1-.3-.3-.7-.5-1.1-.5h-2.5V8.6C92.6 3.8 88.7 0 84 0c-4.7 0-8.6 3.8-8.6 8.6v4.2h-2.5c-.4 0-.8.2-1.1.5-.3.3-.4.7-.4 1.1l.1 2c-.8 0-1.5.7-1.5 1.5v.5h-2.6c-.4 0-.8.2-1.1.5-.3.3-.4.7-.4 1.1l.1 2H1.5c-.8 0-1.5.7-1.5 1.5v112.1c0 .8.7 1.5 1.5 1.5zm92.8-36.7l-8.8 13.7v-11c1.7-.6 2.9-2.2 2.9-4.1 0-2.4-2-4.4-4.4-4.4-2.4 0-4.4 2-4.4 4.4 0 1.9 1.2 3.5 2.9 4.1v11l-8.8-13.7c4.8-3.6 5.3-7.6 5.1-9.8h10.3c-.1 2.2.4 6.2 5.2 9.8zm-10.3 0c-.7 0-1.4-.6-1.4-1.4s.6-1.4 1.4-1.4c.7 0 1.4.6 1.4 1.4s-.7 1.4-1.4 1.4zm-9.8-12.8v-.8h19.6v.8H74.2zm-1.1-34.3l-.2-.7.2-.5v1.2zm3.7 16.4l-2-45.7h18.3l-1.9 45.7H76.8zm1.5 3h4.2v11.1h-4.2V72.7zm7.2 11.1V72.7h4.2v11.1h-4.2zM93.3 21H74.7l-.1-1.7h18.7V21zm-21.4 3.8l.9 21.5h-2.5l-1.1-21.5h2.7zm1 24.6v1.1c-.2-.3-.5-.5-.8-.6-.6-.2-1.3.1-1.7.6l-.1-1.1h2.6zm-5.2 6.3c0 .4.2.8.5 1 .3.2.6.4 1 .4h.1l3-.2c.4 0 .7-.2.9-.4l.6 14.6c0 .8.7 1.4 1.5 1.4v11.1h-2.6c-.8 0-1.5.7-1.5 1.5v3.8c0 .8.7 1.5 1.5 1.5h3.2c.2 1.4 0 5-4.9 8.1-.3.2-.6.6-.7.9-.1.4 0 .8.2 1.1l12.3 19.3c.1.1.1.2.2.3l.1.1c.1.1.1.1.2.1 0 0 .1 0 .1.1.1 0 .1.1.2.1H84.4c.1 0 .2-.1.2-.1s.1 0 .1-.1c.1 0 .1-.1.2-.1l.1-.1c.1-.1.2-.2.2-.3l12.3-19.3c.2-.3.3-.7.2-1.1-.1-.4-.3-.7-.7-.9-4.9-3.1-5.1-6.7-4.9-8.1h3.2c.8 0 1.5-.7 1.5-1.5v-3.8c0-.8-.7-1.5-1.5-1.5h-2.6v-11c.8 0 1.4-.6 1.5-1.4l.9-21.9h14.3v74.1H87.6v-.4c0-.8-.7-1.5-1.5-1.5h-3.9c-.8 0-1.5.7-1.5 1.5v.5H3V49.4h64.4l.3 6.3zm41.7 78.4H3v-7.6h77.7v.5c0 .8.7 1.5 1.5 1.5h3.9c.8 0 1.5-.7 1.5-1.5v-.5h21.8v7.6zm0-87.7H95.2l.9-21.5h13.3v21.5zm-31-37.8C78.4 5.5 80.9 3 84 3c3.1 0 5.6 2.5 5.6 5.6v4.2H78.4V8.6zm-3.9 7.1h18.9v.6h-19l.1-.6zM69 21.3h1v.6h-1v-.6zM3 24.8h63.2l1.1 21.5H3V24.8z"/>
</symbol><symbol id="icon-screen-icon-5" viewBox="0 0 125.3 141">
    <style>
        .st0{fill:#1a171b}
    </style>
    <path class="st0" d="M118.6 4.3c-3.2 0-5.8 2.2-6.5 5.2H73.7v-8C73.7.7 73 0 72.2 0H53.1c-.8 0-1.5.7-1.5 1.5v8H13.2c-.7-3-3.3-5.2-6.5-5.2a6.7 6.7 0 0 0 0 13.4c3.2 0 5.8-2.2 6.5-5.2h32.6C29 18.7 16.7 33.7 14.2 51.8c-3.2.5-5.6 3.3-5.6 6.6s2.5 6.1 5.7 6.6c2 14.6 10.6 27.7 23.3 35.3v3.1h-3.2c-.8 0-1.5.7-1.5 1.5v8.6c0 .8.7 1.5 1.5 1.5h3.2v3.8h-3.2c-.8 0-1.5.7-1.5 1.5v8.6c0 .8.7 1.5 1.5 1.5h16.3c.7 6 5.8 10.6 12 10.6s11.3-4.6 12-10.6H91c.8 0 1.5-.7 1.5-1.5v-8.6c0-.8-.7-1.5-1.5-1.5h-3.2V115H91c.8 0 1.5-.7 1.5-1.5v-8.6c0-.8-.7-1.5-1.5-1.5h-3.2v-3.1c12.7-7.6 21.4-20.7 23.3-35.3 3.2-.5 5.7-3.3 5.7-6.6s-2.4-6.1-5.6-6.6c-2.4-18.1-14.7-33.1-31.6-39.3h32.6c.7 3 3.3 5.2 6.5 5.2 3.7 0 6.7-3 6.7-6.7s-3.1-6.7-6.8-6.7zM54.6 3h16.1v16.1H54.6V3zM6.7 14.7C4.7 14.7 3 13 3 11s1.7-3.7 3.7-3.7S10.4 9 10.4 11s-1.7 3.7-3.7 3.7zm4.9 43.7c0-2 1.7-3.7 3.7-3.7s3.7 1.7 3.7 3.7-1.7 3.7-3.7 3.7c-2.1 0-3.7-1.6-3.7-3.7zM62.7 138c-4.5 0-8.3-3.3-9-7.6h17.9c-.7 4.3-4.4 7.6-8.9 7.6zm26.8-10.7H35.8v-5.6h53.6v5.6zm-4.8-8.5H40.6V115h44.2v3.8zm4.8-6.8H35.8v-5.6h53.6v5.6zM62.7 56.8c1.8 0 3.2 1.5 3.2 3.2 0 1.8-1.5 3.2-3.2 3.2-1.8 0-3.2-1.5-3.2-3.2-.1-1.8 1.4-3.2 3.2-3.2zM61.2 54c-2.7.7-4.7 3.1-4.7 6.1 0 3.4 2.8 6.2 6.2 6.2 3.4 0 6.2-2.8 6.2-6.2 0-2.9-2-5.4-4.7-6.1V31.5L81 58c-9.3 6.5-9.2 14-8.7 17H53c.5-3 .6-10.5-8.7-17l16.9-26.5V54zM80 78v3.3H45.3V78H80zm-6.9 25.4h-9V84.3h9v19.1zM61.2 84.3v19.1h-9V84.3h9zm52.5-25.9c0 2-1.7 3.7-3.7 3.7s-3.7-1.7-3.7-3.7 1.7-3.7 3.7-3.7c2.1 0 3.7 1.7 3.7 3.7zm-5.6-6.4c-2.7.8-4.7 3.4-4.7 6.4 0 3 2 5.6 4.7 6.4-2 13.9-10.3 26.3-22.6 33.4-.5.3-.8.8-.8 1.3v3.9h-8.6V84.3h5.4c.8 0 1.5-.7 1.5-1.5v-6.3c0-.8-.7-1.5-1.5-1.5h-6.1c-.4-1.7-1.3-9.1 8.5-15.3.3-.2.6-.6.7-.9.1-.4 0-.8-.2-1.1L64 25.7c-.3-.4-.7-.7-1.3-.7-.5 0-1 .3-1.3.7L41 57.6c-.2.3-.3.7-.2 1.1.1.4.3.7.7.9 9.8 6.2 8.9 13.6 8.5 15.3h-6.1c-.8 0-1.5.7-1.5 1.5v6.3c0 .8.7 1.5 1.5 1.5h5.4v19.1h-8.6v-3.9c0-.5-.3-1-.8-1.3C27.6 91 19.3 78.6 17.3 64.7 20 64 22 61.4 22 58.4s-2-5.6-4.7-6.4c2.6-18.6 16.2-33.7 34.4-38.2v6.7c0 .8.7 1.5 1.5 1.5h19.1c.8 0 1.5-.7 1.5-1.5v-6.7c18.1 4.6 31.7 19.7 34.3 38.2zm10.5-37.3c-2 0-3.7-1.7-3.7-3.7s1.7-3.7 3.7-3.7 3.7 1.7 3.7 3.7-1.6 3.7-3.7 3.7z"/>
</symbol></svg>